<?xml version="1.0" encoding="utf-8"?>
<!-- Generator: Adobe Illustrator 16.0.0, SVG Export Plug-In . SVG Version: 6.00 Build 0)  -->
<!DOCTYPE svg PUBLIC "-//W3C//DTD SVG 1.1//EN" "http://www.w3.org/Graphics/SVG/1.1/DTD/svg11.dtd">
<svg version="1.1" id="Layer_1" xmlns="http://www.w3.org/2000/svg" xmlns:xlink="http://www.w3.org/1999/xlink" x="0px" y="0px"
	 width="132.936px" height="82.023px" viewBox="0 0 132.936 82.023" enable-background="new 0 0 132.936 82.023"
	 xml:space="preserve">
<g>
	
		<rect x="95.409" y="2.071" transform="matrix(0.7071 0.7072 -0.7072 0.7071 34.4141 -68.9332)" fill="#009E9A" width="10" height="9.999"/>
	
		<rect x="103.894" y="10.556" transform="matrix(0.7071 0.7072 -0.7072 0.7071 42.8999 -72.4481)" fill="#009E9A" width="10" height="10"/>
	
		<rect x="112.38" y="19.041" transform="matrix(0.7071 0.7071 -0.7071 0.7071 51.3793 -75.9587)" fill="#009E9A" width="10" height="10.001"/>
	
		<rect x="120.865" y="27.526" transform="matrix(0.7071 0.7071 -0.7071 0.7071 59.8647 -79.4734)" fill="#009E9A" width="10" height="10.001"/>
	
		<rect x="112.379" y="36.012" transform="matrix(-0.7071 0.7071 -0.7071 -0.7071 229.3788 -12.9884)" fill="#009E9A" width="10" height="10"/>
	
		<rect x="103.895" y="44.497" transform="matrix(-0.7071 0.7072 -0.7072 -0.7071 220.8914 7.489)" fill="#009E9A" width="10" height="10"/>
	
		<rect x="95.409" y="52.981" transform="matrix(-0.7072 0.7071 -0.7071 -0.7072 212.4103 27.9883)" fill="#009E9A" width="10" height="10"/>
	
		<rect x="86.924" y="61.467" transform="matrix(-0.7071 0.7072 -0.7072 -0.7071 203.922 48.459)" fill="#009E9A" width="10" height="10.001"/>
	
		<rect x="61.468" y="52.982" transform="matrix(0.7071 0.7071 -0.7071 0.7071 60.4679 -30.0175)" fill="#009E9A" width="10" height="10"/>
	
		<rect x="69.953" y="61.467" transform="matrix(0.7071 0.7071 -0.7071 0.7071 68.9529 -33.5324)" fill="#009E9A" width="10" height="10.001"/>
	
		<rect x="78.439" y="69.952" transform="matrix(0.7071 0.7071 -0.7071 0.7071 77.4377 -37.0469)" fill="#009E9A" width="9.999" height="10.001"/>
	
		<rect x="86.924" y="10.555" transform="matrix(-0.7071 0.7071 -0.7071 -0.7071 167.923 -38.4456)" fill="#009E9A" width="9.999" height="10"/>
	
		<rect x="78.438" y="19.041" transform="matrix(-0.7071 0.7071 -0.7071 -0.7071 159.438 -17.9593)" fill="#009E9A" width="10" height="10"/>
	
		<rect x="69.953" y="27.526" transform="matrix(-0.7071 0.7071 -0.7071 -0.7071 150.9531 2.5249)" fill="#009E9A" width="10" height="10"/>
	
		<rect x="61.468" y="19.041" transform="matrix(-0.7071 0.7071 -0.7071 -0.7071 130.468 -5.9596)" fill="#009E9A" width="10" height="10"/>
	
		<rect x="52.983" y="27.526" transform="matrix(-0.7071 0.7071 -0.7071 -0.7071 121.9826 14.5259)" fill="#009E9A" width="10" height="10"/>
	
		<rect x="44.497" y="69.953" transform="matrix(-0.7071 0.7071 -0.7071 -0.7071 137.4975 92.9529)" fill="#009E9A" width="10" height="10"/>
	
		<rect x="36.012" y="61.467" transform="matrix(-0.707 -0.7072 0.7072 -0.707 23.0053 142.4651)" fill="#009E9A" width="10.001" height="10"/>
	
		<rect x="27.527" y="52.982" transform="matrix(-0.7072 -0.707 0.707 -0.7072 14.5337 121.984)" fill="#009E9A" width="10" height="10.001"/>
	
		<rect x="19.041" y="44.497" transform="matrix(-0.7071 -0.7071 0.7071 -0.7071 6.0417 101.4967)" fill="#009E9A" width="10" height="10"/>
	
		<rect x="10.556" y="36.012" transform="matrix(-0.7071 -0.7071 0.7071 -0.7071 -2.4437 81.0112)" fill="#009E9A" width="10" height="10"/>
	
		<rect x="2.071" y="27.526" transform="matrix(-0.7071 0.7071 -0.7071 -0.7071 35.0713 50.525)" fill="#009E9A" width="10" height="10"/>
	
		<rect x="52.983" y="61.468" transform="matrix(0.7071 0.7071 -0.7071 0.7071 63.9826 -21.5322)" fill="#009E9A" width="10" height="10"/>
	
		<rect x="27.527" y="2.071" transform="matrix(0.7072 0.707 -0.707 0.7072 14.5235 -20.9274)" fill="#009E9A" width="10" height="10"/>
	
		<rect x="36.012" y="10.556" transform="matrix(0.7071 0.7071 -0.7071 0.7071 23.0128 -24.4448)" fill="#009E9A" width="10" height="9.999"/>
	
		<rect x="44.497" y="19.041" transform="matrix(0.7071 0.7071 -0.7071 0.7071 31.4987 -27.9589)" fill="#009E9A" width="10" height="9.999"/>
	
		<rect x="19.042" y="10.555" transform="matrix(-0.7071 0.7071 -0.7071 -0.7071 52.0413 9.5542)" fill="#009E9A" width="9.999" height="10"/>
	
		<rect x="10.555" y="19.041" transform="matrix(-0.7071 0.7071 -0.7071 -0.7071 43.5558 30.0398)" fill="#009E9A" width="10.001" height="10.001"/>
</g>
</svg>
