<?xml version="1.0" encoding="utf-8"?>
<!-- Generator: Adobe Illustrator 16.0.0, SVG Export Plug-In . SVG Version: 6.00 Build 0)  -->
<!DOCTYPE svg PUBLIC "-//W3C//DTD SVG 1.1//EN" "http://www.w3.org/Graphics/SVG/1.1/DTD/svg11.dtd">
<svg version="1.1" id="Layer_1" xmlns="http://www.w3.org/2000/svg" xmlns:xlink="http://www.w3.org/1999/xlink" x="0px" y="0px"
	 width="467px" height="308px" viewBox="0 0 467 308" enable-background="new 0 0 467 308" xml:space="preserve">
<path fill-rule="evenodd" clip-rule="evenodd" fill="#262626" d="M327.927,9.379c16.785-8.392,25.396-7.103,25.609,1.292
	c0.214,10.974-1.506,25.607-2.584,36.151c-6.454,57.245-16.785,103.943-17.646,162.907c27.762-71.878,50.789-121.372,80.702-182.704
	c9.469-19.581,15.709-15.926,23.455-19.581c30.346-13.562,31.418-5.168,27.331,11.618c-14.634,60.901-52.081,253.504-57.888,282.991
	c-1.723,8.607-11.189,5.162-13.343,1.723c-11.191-14.854-23.241-15.07-21.952-25.181c6.888-49.064,31.422-173.237,37.658-202.504
	c-32.493,66.28-66.067,149.563-83.279,196.475c-3.66,9.902-10.33,9.255-14.418,1.937c-6.029-10.544-17.217-15.706-18.938-27.757
	c-6.029-38.522,6.668-112.121,8.391-158.818c-17.429,50.785-47.13,149.777-60.041,194.324c-5.379,18.507-23.238,15.281-18.506-2.367
	c19.795-75.104,62.193-207.452,80.484-255.01C307.267,13.468,318.673,14.113,327.927,9.379L327.927,9.379z"/>
<path fill-rule="evenodd" clip-rule="evenodd" fill="#262626" d="M220.755,0.126c-5.811-1.291-22.596,7.746-32.925,9.253
	c-3.226,0.863-6.239,4.089-7.314,6.67c-16.356,37.659-30.99,73.387-43.47,105.662c-16.356,3.015-35.294,6.674-56.385,11.191
	c15.28-38.734,30.561-77.254,45.408-114.056c7.317-18.506-12.049-20.229-19.583-1.72c-9.684,23.888-27.978,68.86-48.204,121.158
	c-14.851,3.658-30.991,7.746-47.343,12.696c-12.052,3.227-12.486,6.453-7.318,13.773c3.014,3.874,8.609,3.44,11.407,6.457
	c7.102,7.313,11.407,16.138,24.1,17.427c-11.62,30.129-22.811,60.903-32.709,90.388c-6.457,18.721,11.834,22.597,18.721,2.795
	c11.19-31.635,23.025-63.698,35.294-96.194c10.116-2.15,34.432-7.313,57.03-12.48c-17.864,49.494-29.483,86.726-34.22,105.019
	c-0.857,3.442,0.861,5.165,1.507,6.885c5.811,8.607,11.836,9.038,19.583,20.016c1.939,3.015,9.038,4.518,11.624-2.798
	c16.57-50.356,33.354-97.27,49.278-139.449c6.674-1.725,18.725-4.521,26.04-15.279c12.914-19.37,16.573-15.495,20.018-21.307
	c3.871-7.53,1.072-14.204-12.698-12.697c0,0-5.167,0.434-15.067,1.508c15.495-39.383,29.271-72.738,38.74-98.348
	C225.489,7.872,225.923,1.416,220.755,0.126L220.755,0.126z"/>
<path fill-rule="evenodd" clip-rule="evenodd" fill="#262626" d="M205.619,244.68c2.239-2.841,4.27-5.771,6.1-8.48
	c8.157-12.063,0.216-19.154-8.177-12.053c-1.199,1.105-2.443,2.306-3.68,3.554c-1.36-4.263-2.809-8.805-4.098-12.925
	c3.849-4.716,7.59-9.556,10.786-14.518c13.488-20.915-12.909-32.924-24.316-19.365c-6.022,7.102-4.517,14.206-2.797,20.446
	c0.499,1.874,1.277,4.553,2.237,7.803c-3.226,3.381-7.073,7.527-12.137,13.499c-13.125,15.064-9.477,34.469,4.304,38.737
	c8.31,2.572,16.149-1.179,22.942-7.173c0.326,0.856,0.641,1.669,0.947,2.438c3.659,9.041,15.065,6.24,10.544-4.732
	C207.549,250.062,206.642,247.583,205.619,244.68L205.619,244.68z M186.939,225.718c1.116,3.513,2.317,7.202,3.514,10.736
	c-1.5,1.254-3.025,2.519-4.559,3.404c-5.337,3.085-9.255-0.217-2.37-9.472C184.651,228.792,185.805,227.245,186.939,225.718
	L186.939,225.718z M191.244,199.364c-0.397-1.002-0.623-1.979-0.833-2.76c-3.861-14.423,12.67-10.568,4.305-1.078
	C193.533,196.872,192.453,198.199,191.244,199.364L191.244,199.364z"/>
</svg>
