<?xml version="1.0" encoding="utf-8"?>
<!-- Generator: Adobe Illustrator 16.0.0, SVG Export Plug-In . SVG Version: 6.00 Build 0)  -->
<!DOCTYPE svg PUBLIC "-//W3C//DTD SVG 1.1//EN" "http://www.w3.org/Graphics/SVG/1.1/DTD/svg11.dtd">
<svg version="1.1" id="Layer_1" xmlns="http://www.w3.org/2000/svg" xmlns:xlink="http://www.w3.org/1999/xlink" x="0px" y="0px"
	 width="372px" height="179px" viewBox="0 0 372 179" enable-background="new 0 0 372 179" xml:space="preserve">
<g>
	<rect x="2.461" y="0.004" fill="#262626" width="190.745" height="178.801"/>
	<g>
		<path fill="#FFFFFF" d="M99.499,14.376c2.194,2.494,3.525,6.156,2.249,9.385c-0.668,1.338-1.647,2.436-2.806,3.528
			c-1.03,0.369-2.544,2.624-3.343,0.432c-1.883-2.136-2.86-4.998-2.252-7.862c0.793-2.558,3.228-4.503,5.542-5.601L99.499,14.376z"
			/>
		<path fill="#FFFFFF" d="M120.349,21.12c2.671,1.766,4.928,4.505,4.684,7.796c0.064,1.77-0.247,3.351-0.724,4.874
			c-1.414-0.025-2.406-0.577-3.587-1.016c-3.614-1.333-5.856-5.505-5.736-9.465c0-1.398,0.427-2.792,1.035-4.016
			C117.534,19.601,119.004,20.265,120.349,21.12z"/>
		<path fill="#FFFFFF" d="M113.116,33.856c0.119,2.141-0.401,3.999-1.332,5.675c0,0.344-0.163,0.69-0.403,0.865
			c-3.307-0.754-6.537-3.526-7.115-6.881c-0.751-2.609-0.178-5.906,1.09-8.276c0.412-0.702,1.044,0,1.517,0.173
			c2.532,1.154,4.452,3.293,5.787,5.729L113.116,33.856z"/>
		<path fill="#FFFFFF" d="M91.773,29.646c-0.084,0.653,0.436,1.367-0.068,1.975c-2.574,0.514-5.307,0.148-7.778-1.299
			c-3.168-1.727-5.486-5.242-5.148-8.976c0.19-0.927,1.455-0.656,2.174-0.739c1.253,0.013,2.536,0.227,3.779,0.544
			C88.446,22.476,91.281,25.634,91.773,29.646z"/>
		<path fill="#FFFFFF" d="M71.227,26.798c1.52,3.173,1.222,7.497-0.369,10.54c-0.79,1.584-2.07,2.929-3.459,4.022
			c-0.817-0.433-1.166-1.16-1.535-1.771c-1.282-2.004-1.759-4.44-1.826-6.879c0.066-3.409,2.856-6.333,5.848-7.675
			C70.744,25.157,70.803,26.186,71.227,26.798z"/>
		<path fill="#FFFFFF" d="M142.976,28.37c-0.244,0.977-1.154,1.711-1.945,2.499c-3.784,2.984-8.834,4.077-13.896,2.864l-0.179-0.182
			c0.734-2.989,2.44-5.847,5.358-7.19C135.785,25.08,140.115,26.114,142.976,28.37z"/>
		<path fill="#FFFFFF" d="M97.811,32.424c3.408,2.257,6.135,5.67,5.384,9.895c-0.35,2.37-1.45,4.396-2.437,6.535
			c-0.696,0.177-1.217-0.69-1.8-0.981c-3.177-2.202-4.851-5.787-4.275-9.726c0.351-2.192,1.211-4.226,2.486-5.954L97.811,32.424z"/>
		<path fill="#FFFFFF" d="M148.564,30.751c1.099,3.536,1.099,7.676-1.591,10.476c-1.879,2.009-4.385,3.166-6.756,3.964
			c-0.489-0.556-0.187-1.278-0.432-1.955c-0.599-4.75,0.68-9.623,4.817-12.305C145.639,30.262,148.375,27.887,148.564,30.751z"/>
		<path fill="#FFFFFF" d="M63.245,39.421c1.598,2.423,2.057,6.546,0.966,9.606c-0.819,2.082-2.434,3.926-3.927,5.487l-0.169,0.029
			c-2.598-3.699-5.028-8.862-2.542-13.364c0.684-1.385,1.894-2.43,2.999-3.582C61.738,36.65,62.231,37.819,63.245,39.421z"/>
		<path fill="#FFFFFF" d="M109.771,44.282c1.488,2.245,2.258,4.934,1.924,7.841c-0.102,3.01-2.246,5.7-4.874,7.231
			c-0.503,0.108-1.541,0.938-1.647-0.159c-0.82-1.98-1.101-4.169-1.313-6.419c0.162-0.652,0.054-1.533,0.386-2.188
			c0.542-2.802,2.842-4.937,5.26-6.305H109.771z"/>
		<path fill="#FFFFFF" d="M154.662,44.136c0.316,2.052-0.58,4.036-1.404,5.835c-2.64,4.037-7.772,4.618-11.999,3.588
			c-0.772-0.385-1.723-0.385-2.371-0.966c0.706-2.046,2.625-3.587,4.104-5.062c3.333-2.374,7.044-3.651,11.417-3.524L154.662,44.136
			z"/>
		<path fill="#FFFFFF" d="M162.809,47.819c1.335,2.686,1.646,6.824-0.3,9.323c-0.735,1.281-1.959,2.377-3.17,3.163
			c-1.138-0.634-1.277-1.15-1.833-1.763c-2.308-3.471-1.825-8.645,0.255-12.053c0.602-0.801,1.03-2.263,2.245-2.202
			C161.349,45.141,162.075,46.598,162.809,47.819z"/>
		<path fill="#FFFFFF" d="M75.411,53.421c1.91,2.937,1.05,6.934,0.35,10.226c-0.464,0.142-2.654-1.011-3.38-1.332l-1.406-0.865
			c-2.455-2.341-4.218-5.384-3.413-9.011c0.469-1.445,0.638-3.064,1.681-4.158C71.837,48.913,73.731,51.219,75.411,53.421z"/>
		<path fill="#FFFFFF" d="M52.281,49.035c0.329,0.42,0.365,0.237,0.489,0.55c1.578,1.819,2.011,4.258,2.558,6.511
			c0,0.368-0.137,0.42-0.439,0.482c-3.836,0.124-9.306,0.674-11.316-3.584c-0.79-1.653-1.403-3.475-1.403-5.305
			c1.894-0.793,4.015-0.911,6.276-0.73C49.911,47.142,51.368,47.749,52.281,49.035z"/>
		<path fill="#FFFFFF" d="M101.038,55.141c0.655,1.315,1.32,2.579,1.32,4.162c-1.105,0.775-2.47,0.775-3.786,0.993
			c-1.487,0.102-3.133,0.159-4.441-0.663c-2.743-1.482-4.876-4.385-4.933-7.449c1.208-0.608,2.458-0.883,3.837-1.042
			C96.207,51.19,99.392,52.185,101.038,55.141z"/>
		<path fill="#FFFFFF" d="M136.931,54.107c0.453,3.284,0.741,7.158-1.67,9.695c-1.792,2.312-4.446,3.055-7.108,3.634l-0.283-0.459
			c-0.35-4.047-0.121-8.311,3.283-10.911c1.503-1.154,3.347-1.788,5.132-2.366C136.579,53.643,136.81,53.871,136.931,54.107z"/>
		<path fill="#FFFFFF" d="M123.351,60.279c1.102,2.249,1.894,4.689,1.835,7.311c-1.715,0.546-3.659-0.129-5.427-0.429
			c-2.735-0.73-5.049-3.354-5.35-6.212c-0.492-1.705-0.133-3.72,0.115-5.359c0-1.158,1.343-0.973,2.064-0.737
			C119.336,55.343,122.317,57.597,123.351,60.279z"/>
		<path fill="#FFFFFF" d="M88.987,61.056c1.261,2.023,1.701,4.492,1.701,7.072l-0.224,0.112c-3.612,0.325-7.452-0.112-9.373-3.461
			c-0.825-1.586-1.266-2.464-1.511-4.933c-0.104-1.337,0.036-1.846,0.142-2.742l0.385-0.219
			C83.731,56.615,86.852,58.312,88.987,61.056z"/>
		<path fill="#FFFFFF" d="M67.049,60.242c2.125,2.59,2.364,6.46,1.616,9.807c-1.341-0.193-2.195-0.443-3.349-0.812
			c-2.184-0.678-4.329-2.659-5.326-4.248l-0.578-1.591c-0.211-1.264-0.245-2.705-0.041-3.973c0.128-0.789,0.403-1.549,0.638-2.365
			C62.72,57.24,65.021,58.509,67.049,60.242z"/>
		<path fill="#FFFFFF" d="M153.005,57.014c0.041,0.797-0.265,1.368-0.553,2.204c-2.066,4.259-6.517,6.33-11.021,6.39
			c-1.033,0.064-1.945-0.06-2.736-0.365c0.233-3.416,1.281-7.432,4.993-8.77C146.847,55.436,150.076,55.741,153.005,57.014z"/>
		<path fill="#FFFFFF" d="M56.225,60.372c0.523,0.104-0.146,1.329-0.409,1.887c-1.417,3.071-4.378,5.787-7.799,5.911
			c-2.661,0.179-4.729-0.531-6.862-1.542c-0.527-0.531-1.715-0.881-1.478-1.77c2.598-3.011,6.27-4.608,9.991-5.262
			C52.036,59.482,54.104,59.835,56.225,60.372z"/>
		<path fill="#FFFFFF" d="M169.842,64.029c1.998,1.86,3.727,4.295,4.042,6.989c-0.248,0.574-1.017,0.514-1.666,0.574
			c-3.784,0.391-7.951-0.254-10.389-3.531c-1.154-1.403-1.805-3.03-1.984-4.869C162.86,61.705,167.287,61.592,169.842,64.029z"/>
		<path fill="#FFFFFF" d="M157.687,63.207c0.253,1.86,0.012,3.479-0.428,5.204c-0.443,1.679-0.762,2.841-2.212,4.094
			c-2.174,2.374-5.377,2.697-8.268,3.141c-0.705-1.539-0.424-2.992-0.126-4.421c0.511-3.144,3.017-6.474,6.155-7.63
			c1.415-0.577,2.942-1.089,4.621-1.217L157.687,63.207z"/>
		<path fill="#FFFFFF" d="M75.888,66.251c2.135,2.652,2.778,6.232,2.538,9.638c-0.403,2.595-1.438,5.079-3.284,7.038
			c-0.292,0.292-0.814,0.172-0.981-0.115c-1.502-1.555-2.955-3.289-3.519-5.308c-0.295-1.787-0.506-3.702,0.228-5.43
			C71.795,69.769,73.582,67.405,75.888,66.251z"/>
		<path fill="#FFFFFF" d="M43.135,72.986c1.378,2.375,1.257,5.25,1.506,8.007c-0.066,0.373-0.249,0.811-0.685,0.686
			c-3.701-0.431-7.836-1.686-9.27-5.504c-1.003-2.571-0.879-6.2,0.493-8.514C38.493,68.098,41.45,69.975,43.135,72.986z"/>
		<path fill="#FFFFFF" d="M144.224,72.371c-1.547,2.8-4.595,3.732-7.513,4.045c-0.447-0.313-0.802,0.123-1.242,0.057
			c-3.429-0.561-6.535-3.294-7.284-6.721c1.932-1.055,4.412-1.179,6.781-1.49C138.506,68.389,141.992,69.449,144.224,72.371z"/>
		<path fill="#FFFFFF" d="M91.04,74.855c0.806,1.375,1.066,3.021,1.066,4.615c-2.067,0.592-4.729,0.436-6.798-0.157
			c-3.138-1.171-4.688-4.674-4.843-7.921c0.155-0.638-0.269-1.808,0.904-1.492C85.146,70.005,89.08,71.338,91.04,74.855z"/>
		<path fill="#FFFFFF" d="M126.41,71.002c-0.133,3.853-1.291,7.891-5.006,9.623c-2.44,0.699-4.94,1.276-7.498,0.634
			c-0.264-1.988,0.386-3.908,1.213-5.648c2.114-3.772,6.409-4.991,10.578-5.319C126.147,70.167,126.41,70.621,126.41,71.002z"/>
		<path fill="#FFFFFF" d="M172.126,77.863l-0.131,0.451c-2.369,2.118-5.318,3.394-8.659,2.945c-2.945-0.707-5.923-2.912-7.605-5.557
			c1.207-1.155,1.49-1.286,2.355-1.688c3.005-1.733,7.369-1.602,10.314,0.318C169.691,75.361,171.156,76.517,172.126,77.863z"/>
		<path fill="#FFFFFF" d="M134.458,82.228c1.667,3.263,0.84,6.926,0.326,10.385l-0.393,0.258c-3.141-0.771-6.595-2.374-7.57-5.833
			c-0.955-2.89-0.632-6.936,0.909-9.566C130.29,78.314,133.111,79.595,134.458,82.228z"/>
		<path fill="#FFFFFF" d="M147.727,78.894c0.521,0.13,0.783-0.394,1.172-0.459c1.768-0.655,4.062-0.848,5.69,0.133
			c3.001,2.084,3.388,6.076,2.682,9.469c-0.596,2.614-1.77,5.617-4.449,6.785c-3.593,1.764-7.97,1.31-11.292-0.514
			c-1.313-1.046-2.163-2.16-3.009-3.526c-1.434-3.269-1.698-8.236,0.984-11.037c1.764-1.435,3.909-2.353,6.267-1.769
			C146.493,78.106,147.078,78.63,147.727,78.894z"/>
		<path fill="#FFFFFF" d="M173.043,85.178c0.685,0.461-0.236,0.926-0.293,1.445c-2.25,3.407-6.003,5.311-10.045,4.498
			c-1.261-0.345-2.646-0.287-3.692-1.036c-0.163-0.808,0.643-1.328,0.867-2.076c1.273-2.546,3.863-4.33,6.751-4.27
			C168.996,83.623,171.079,84.254,173.043,85.178z"/>
		<path fill="#FFFFFF" d="M47.09,87.468c-0.376,1.036-1.589,1.463-2.447,2.066c-3.103,1.894-7.606,2.742-11.011,0.976
			c-1.102-0.543-2.142-1.148-3.113-1.946l0.124-0.61c2.866-3.782,7.797-4.936,12.122-3.655
			C44.344,85.032,45.921,86.007,47.09,87.468z"/>
		<path fill="#FFFFFF" d="M75.183,85.355c0.578,2.661-0.468,5.149-1.736,7.291c-2.486,3.186-6.305,3.989-10.128,4.102
			c-0.155-0.83-0.105-1.08-0.051-1.737c0.362-3.501,2.312-6.759,5.377-8.557C70.555,85.475,72.87,84.943,75.183,85.355z"/>
		<path fill="#FFFFFF" d="M56.049,94.479c1.454,2.601,1.104,6.428,0.292,9.203c-0.574,0.404-1.329,0-1.905-0.172
			c-2.957-1.108-5.62-3.996-6.078-7.116c-0.12-1.221-0.317-2.646,0.049-3.798c0.247-0.78,0.353-1.648,0.822-2.28
			C51.944,90.718,54.781,91.762,56.049,94.479z"/>
		<path fill="#FFFFFF" d="M45.796,93.146c0.338,3.687-0.523,7.612-4.043,9.399c-2.301,1.213-5.188,1.45-7.849,1.213
			c-0.282-0.741,0-1.67,0.171-2.479c0.583-2.134,1.278-4.325,3.294-5.71c2.248-1.792,4.96-2.309,7.796-2.599L45.796,93.146z"/>
		<path fill="#FFFFFF" d="M168.452,96.76c0.926,1.734,1.324,3.693,1.437,5.713c-1.33,0.519-2.981,0.32-4.441,0.224
			c-2.709-0.453-5.602-1.839-6.866-4.549c-0.633-1.562-0.923-3.464-0.805-5.087c1.668-0.454,3.401,0.232,4.961,0.412
			C164.929,93.875,167.067,94.743,168.452,96.76z"/>
		<path fill="#FFFFFF" d="M103.424,63.096c0.521,0.128,0.781-0.392,1.175-0.46c1.765-0.653,4.048-0.849,5.679,0.132
			c3.001,2.091,3.396,6.066,2.678,9.472c-0.589,2.616-1.764,5.616-4.435,6.785c-3.6,1.764-7.982,1.307-11.312-0.519
			c-1.3-1.043-2.147-2.152-2.991-3.519c-1.445-3.27-1.708-8.24,0.972-11.044c1.766-1.432,3.922-2.349,6.271-1.761
			C102.183,62.311,102.76,62.833,103.424,63.096z"/>
		<path fill="#FFFFFF" d="M125.298,37.728c0.522,0.128,0.784-0.393,1.186-0.459c1.753-0.653,4.05-0.85,5.679,0.126
			c3.001,2.095,3.396,6.078,2.679,9.476c-0.593,2.611-1.766,5.615-4.439,6.788c-3.6,1.766-7.973,1.306-11.311-0.523
			c-1.298-1.041-2.143-2.157-2.996-3.521c-1.437-3.27-1.699-8.237,0.982-11.04c1.759-1.434,3.91-2.354,6.269-1.762
			C124.064,36.94,124.65,37.466,125.298,37.728z"/>
		<path fill="#FFFFFF" d="M82.449,35.132c0.515,0.129,0.776-0.396,1.174-0.455c1.76-0.659,4.036-0.854,5.68,0.13
			c2.998,2.092,3.395,6.066,2.676,9.466c-0.589,2.606-1.765,5.623-4.446,6.798c-3.589,1.761-7.969,1.3-11.3-0.525
			c-1.299-1.043-2.153-2.159-2.996-3.528c-1.438-3.261-1.7-8.23,0.978-11.04c1.759-1.437,3.916-2.341,6.265-1.767
			C81.208,34.344,81.788,34.87,82.449,35.132z"/>
		<path fill="#FFFFFF" d="M57.221,71.494c0.526,0.137,0.784-0.39,1.174-0.451c1.766-0.653,4.049-0.852,5.679,0.132
			c3.001,2.085,3.399,6.07,2.682,9.469c-0.582,2.614-1.768,5.613-4.449,6.79c-3.579,1.763-7.958,1.304-11.287-0.522
			c-1.313-1.046-2.156-2.152-3.002-3.529c-1.448-3.261-1.706-8.228,0.97-11.034c1.77-1.442,3.921-2.349,6.272-1.767
			C55.976,70.713,56.572,71.232,57.221,71.494z"/>
		<path fill="#FFFFFF" d="M84.992,82.65c2.367,1.281,5.083,2.241,7.286,3.329c0.882-0.165,0.515-1.284,0.532-1.917l0.133-1.411
			c1.537-0.514,3.457-0.897,5.065-0.449c0.251,1.221-0.242,2.113,0.214,3.331c1.052,0.222,1.806-0.141,2.854-0.464
			c2.876-1.028,5.503-1.784,8.448-2.684c1.004-0.042,1.368,0.668,2.891,1.562c3.138-0.315,6.819,0.115,9.898,0.175
			c0.772,0.324,1.927-0.06,2.563,0.582c0,1.667-0.386,3.266-0.77,4.871l-0.513,0.318l-7.183-0.125l-0.25,0.253
			c0.25,8.467,1.023,16.741,3.142,24.695c0.123,0.764,0.703,1.413,1.471,1.536l10.196,3.008c2.564,0,4.998-1.015,7.433-1.602
			c4.17-0.376,7.695,1.536,11.617,2.306c2.106-0.313,3.78-2.191,6.22-1.719c2.682,0.253,5.185,1.405,7.746,2.235
			c0.584,0.392,0.261,1.286,0.068,1.859c-1.984,4.815-4.996,9.423-8.85,13.2c-4.36,4.432-8.658,8.603-14.107,11.548
			c-4.36,2.437-8.814,4.602-13.455,6.391c-2.489,0.966-5.078,1.565-7.637,2.272c-7.443,1.542-15.331,2.238-23.219,1.987
			c-1.246-0.138-0.929,0.076-3.574-0.289c-6.243-0.64-12.001-2.791-17.714-4.648c-3.332-1.8-6.921-2.953-10.063-5.137
			c-4.109-3.01-8.663-5.896-12.19-9.811c-4.359-4.291-8.521-8.971-10.773-14.426c-0.055-1.291,1.485-1.221,2.252-1.722
			c6.216-1.609,12.374-3.208,18.79-4.364c2.82,0.063,4.679,2.622,7.691,2.116c5.768-1.8,11.737-3.016,17.633-4.558l0.062-1.216
			c-0.824-4.432-1.914-8.657-2.117-13.343c-0.385-2.752-0.446-5.897-0.644-8.851c-2.242-1.724-4.87-2.752-7.178-4.356l-1.394-1.043
			c0.451-2.051,3-5.554,3-5.554C81.139,80.245,83.467,82.162,84.992,82.65z M110.607,89.727c-4.291,2.238-8.652,4.417-13.141,6.29
			v0.185c1.019,0.256,2.052-0.256,3.069-0.185c3.661-0.777,7.311-1.737,10.711-3.212l0.065-2.629
			C111.246,89.784,110.925,89.662,110.607,89.727z M111.062,95.497c-4.305,2.632-8.85,4.542-13.596,6.091
			c0,0.19,0.059,0.256,0.192,0.379c4.806,0.13,8.839-1.855,13.142-3.142c1.476-0.25,0.705-2.045,0.833-2.88
			C111.572,95.688,111.379,95.364,111.062,95.497z M110.281,101.844c-3.224,2.309-6.664,3.592-10.253,4.878
			c-0.454,0.058-1.033,0-1.211,0.378c0,0.509,0.632,0.193,1.019,0.318c4.225-0.125,8.011-1.213,11.669-2.762
			c1.349-0.441,0.63-2.077,0.579-3.259C111.632,100.242,111.049,101.299,110.281,101.844z M112.154,106.973
			c0.122-0.632-8.444,4.316-12.864,6.049c0.059,0.136-0.065,0.326,0.124,0.392c0.175,0.114,0.324,0.125,0.386,0.06
			c4.553,0,9.05-0.955,12.896-3.141c0.057-0.645,0.314-1.536,0-2.184L112.154,106.973z M113.026,112.727
			c-3.591,2.173-7.375,4.346-11.737,4.803c-0.374,0.128-0.836,0.383-0.7,0.905c1.017,1.792,3.467,0.634,5.131,0.565
			c0.702,0.396,0.386,1.286,0.441,1.985c-1.16,1.268-2.367,1.221-3.524,1.808c-3.659,1.728-2.82,6.089-3.591,9.365
			c1.086,1.015,2.822,0.957,4.171,1.469l0.577-0.128c1.997-4.37,3.263-9.044,4.94-13.596c0.258-0.903,1.212-0.835,1.859-1.219
			c0.51-0.067,1.086-0.646,1.542-0.125l0.892,5.123c0.424,0.663,0.318,0.704,0.708,0.838c5.128,1.943,8.786,1.8,13.137,2.955
			c0.457,0.109,1.157,0.193,1.542-0.073c0.454-1.082,0.772-2.235,1.033-3.456l-0.385-0.451c-1.665-0.517-3.344-1.025-5.067-1.537
			c-0.261-0.456-0.894,0.065-1.153-0.456c-2.563-0.759-5.327-1.088-7.569-2.434c-1.088-1.728-1.158-3.913-1.668-5.833
			C113.538,112.914,113.471,112.525,113.026,112.727z M89.446,119.35c-4.556,1.093-9.04,1.865-13.472,3.331l-0.248,0.454
			c0.445,1.153,0.386,2.496,1.02,3.521c3.218,0,5.97-1.216,9.05-1.346c1.474-0.381,3.141-0.381,4.488-1.153
			c0.755-1.152,0.317-2.434,0.191-3.715C90.285,120.062,90.217,119.097,89.446,119.35z"/>
	</g>
	<rect x="193.206" fill="#262626" width="178.794" height="178.797"/>
	<g>
		<path fill="#FFFFFF" d="M214.74,88.201h7.272l10.319,16.875h0.07V88.201h5.36v24.28h-7.006l-10.602-17.292h-0.058v17.292h-5.357
			V88.201z"/>
		<path fill="#FFFFFF" d="M250.676,88.201h4.437l10.567,24.28h-6.047l-2.084-5.144h-9.448l-2.011,5.144h-5.891L250.676,88.201z
			 M252.741,95.265l-2.942,7.544h5.924L252.741,95.265z"/>
		<path fill="#FFFFFF" d="M269.655,92.931h-6.921v-4.729h19.205v4.729h-6.921v19.551h-5.363V92.931z"/>
		<path fill="#FFFFFF" d="M305.121,103.119c0,5.729-3.492,9.978-10.218,9.978c-6.759,0-10.251-4.249-10.251-9.978V88.201h5.345
			v14.715c0,2.977,2.05,5.243,4.906,5.243c2.805,0,4.873-2.267,4.873-5.243V88.201h5.345V103.119z"/>
		<path fill="#FFFFFF" d="M310.062,88.201h9.406c4.964,0,9.15,1.713,9.15,7.372c0,3.391-1.823,6.033-5.245,6.656l6.174,10.252
			h-6.414l-5.082-9.712h-2.632v9.712h-5.357V88.201z M315.42,98.252h3.154c1.948,0,4.489-0.068,4.489-2.716
			c0-2.434-2.196-2.812-4.15-2.812h-3.493V98.252z"/>
		<path fill="#FFFFFF" d="M346.858,108.662l3.605,3.819h-4.411l-1.352-1.528c-1.312,1.366-2.838,1.943-4.747,1.943
			c-2.927,0-5.744-1.607-5.744-4.853c0-2.081,1.508-3.769,3.433-4.413c-1.052-1.143-1.784-2.032-1.784-3.634
			c0-2.922,2.465-4.111,5.058-4.111c2.491,0,4.698,1.252,4.698,3.976c0,1.92-1.369,3.357-2.994,4.21l2.081,2.218l1.578-2.152h3.991
			L346.858,108.662z M339.439,105.29c-0.876,0.561-2.183,1.564-2.235,2.775c-0.073,1.263,1.312,2.184,2.434,2.131
			c1.438-0.058,2.296-0.777,3.068-1.432L339.439,105.29z M339.166,100.127c0.086,1.106,0.91,1.537,1.469,2.043
			c0.704-0.412,1.948-1.021,1.914-2.082c-0.021-1.072-0.597-1.669-1.685-1.727C339.761,98.302,339.096,99.23,339.166,100.127z"/>
		<path fill="#FFFFFF" d="M214.948,123.639h5.348v10.09l9.44-10.09h6.991l-10.805,11.284l11.735,13.004h-7.483l-9.879-11.527v11.527
			h-5.348V123.639z"/>
		<path fill="#FFFFFF" d="M259.982,138.554c0,5.729-3.503,9.988-10.215,9.988c-6.764,0-10.27-4.26-10.27-9.988v-14.915h5.365v14.707
			c0,2.989,2.048,5.254,4.904,5.254c2.802,0,4.865-2.265,4.865-5.254v-14.707h5.35V138.554z"/>
		<path fill="#FFFFFF" d="M265.116,123.639h5.363v19.342h9.915v4.946h-15.278V123.639z"/>
		<path fill="#FFFFFF" d="M284.882,128.373h-6.924v-4.734h19.21v4.734h-6.926v19.554h-5.36V128.373z"/>
		<path fill="#FFFFFF" d="M320.36,138.554c0,5.729-3.503,9.988-10.23,9.988c-6.762,0-10.249-4.26-10.249-9.988v-14.915h5.348v14.707
			c0,2.989,2.063,5.254,4.901,5.254c2.807,0,4.873-2.265,4.873-5.254v-14.707h5.357V138.554z"/>
		<path fill="#FFFFFF" d="M325.288,123.639h9.409c4.962,0,9.148,1.716,9.148,7.382c0,3.389-1.82,6.028-5.238,6.646l6.167,10.26
			h-6.414l-5.066-9.709h-2.647v9.709h-5.358V123.639z M330.646,133.694h3.156c1.959,0,4.489-0.067,4.489-2.713
			c0-2.434-2.193-2.817-4.152-2.817h-3.493V133.694z"/>
	</g>
	<line fill="none" stroke="#FFFFFF" x1="193.206" y1="0.004" x2="193.206" y2="178.805"/>
</g>
</svg>
