<?xml version="1.0" encoding="utf-8"?>
<!-- Generator: Adobe Illustrator 16.0.0, SVG Export Plug-In . SVG Version: 6.00 Build 0)  -->
<!DOCTYPE svg PUBLIC "-//W3C//DTD SVG 1.1//EN" "http://www.w3.org/Graphics/SVG/1.1/DTD/svg11.dtd">
<svg version="1.1" id="Layer_1" xmlns="http://www.w3.org/2000/svg" xmlns:xlink="http://www.w3.org/1999/xlink" x="0px" y="0px"
	 width="726px" height="100px" viewBox="0 0 726 100" enable-background="new 0 0 726 100" xml:space="preserve">
<polygon fill-rule="evenodd" clip-rule="evenodd" fill="#262626" points="-0.043,4.412 -0.043,17.659 21.683,17.659 64.202,97.403
	116.525,97.403 159.047,17.527 180.771,17.394 180.816,4.412 115.817,4.412 115.817,17.439 133.129,17.439 103.102,74.129
	70.627,17.634 94.313,17.527 94.271,4.412 -0.043,4.412 "/>
<polygon fill-rule="evenodd" clip-rule="evenodd" fill="#262626" points="419.293,4.412 419.293,17.659 441.02,17.659
	483.539,97.403 535.864,97.403 578.385,17.527 600.108,17.394 600.151,4.412 535.159,4.412 535.159,17.439 552.462,17.439
	522.443,74.129 489.966,17.634 513.653,17.527 513.612,4.412 419.293,4.412 "/>
<path fill-rule="evenodd" clip-rule="evenodd" fill="#262626" d="M312.386,4.412v13.247h21.725l0.032,65.104h-22.9v14.512
	l22.916,0.129h108.472V54.118c0,0-2.672,0-14.131,0c-0.769,22.919-20.654,28.675-29.024,28.675c-7.676,0-22.543-0.03-22.543-0.03
	V17.634l21.401-0.107l-0.036-13.115H312.386L312.386,4.412z"/>
<path fill-rule="evenodd" clip-rule="evenodd" fill="#262626" d="M239.244,1.746c-36.928,0-66.861,21.985-66.861,49.1
	c0,27.116,29.933,49.103,66.861,49.103c36.929,0,66.867-21.986,66.867-49.103C306.111,23.731,276.173,1.746,239.244,1.746
	L239.244,1.746z M238.289,85.497c-13.019,0-23.564-15.595-23.564-34.84c0-19.25,10.545-34.853,23.564-34.853
	c13.015,0,23.565,15.603,23.565,34.853C261.854,69.902,251.303,85.497,238.289,85.497L238.289,85.497z"/>
<path fill-rule="evenodd" clip-rule="evenodd" fill="#262626" d="M658.592,0.133c-36.933,0-66.857,22.341-66.857,49.902
	c0,27.554,29.925,49.897,66.857,49.897c36.924,0,66.859-22.343,66.859-49.897C725.451,22.475,695.516,0.133,658.592,0.133
	L658.592,0.133z M657.63,85.247c-13.011,0-23.558-15.853-23.558-35.415c0-19.558,10.547-35.413,23.558-35.413
	c13.017,0,23.562,15.855,23.562,35.413C681.192,69.395,670.646,85.247,657.63,85.247L657.63,85.247z"/>
</svg>
