<?xml version="1.0" encoding="utf-8"?>
<!-- Generator: Adobe Illustrator 16.0.0, SVG Export Plug-In . SVG Version: 6.00 Build 0)  -->
<!DOCTYPE svg PUBLIC "-//W3C//DTD SVG 1.1//EN" "http://www.w3.org/Graphics/SVG/1.1/DTD/svg11.dtd">
<svg version="1.1" id="Layer_1" xmlns="http://www.w3.org/2000/svg" xmlns:xlink="http://www.w3.org/1999/xlink" x="0px" y="0px"
	 width="607px" height="100px" viewBox="0 0 607 100" enable-background="new 0 0 607 100" xml:space="preserve">
<g>
	<path fill="#262626" d="M-0.091,0h26.613l9.584,55.999L50.129,0h26.516l14.058,55.924L100.297,0h26.476l-19.99,100.032H79.307
		L63.403,37.052L47.56,100.031H20.083L-0.091,0z"/>
	<path fill="#262626" d="M180.41,83.52h-32.781l-4.555,16.512h-29.479L148.714,0h31.492l35.114,100.032h-30.237L180.41,83.52z
		 M174.422,61.888l-10.315-35.958l-10.205,35.958H174.422z"/>
	<path fill="#262626" d="M295.359,0h42.789c8.436,0,15.248,1.23,20.441,3.687s9.485,5.98,12.877,10.576
		c3.389,4.594,5.847,9.938,7.374,16.034c1.525,6.096,2.288,12.555,2.288,19.378c0,10.688-1.133,18.982-3.402,24.872
		c-2.268,5.89-5.415,10.828-9.442,14.808c-4.024,3.98-8.35,6.632-12.969,7.95c-6.313,1.819-12.039,2.728-17.167,2.728h-42.789V0z
		 M324.163,22.654v54.654h7.056c6.02,0,10.298-0.717,12.841-2.148c2.546-1.433,4.54-3.935,5.978-7.506
		c1.443-3.57,2.161-9.358,2.161-17.364c0-10.6-1.612-17.856-4.829-21.769c-3.222-3.913-8.564-5.868-16.022-5.868H324.163z"/>
	<path fill="#262626" d="M387.453,0H458.9v21.359h-40.469v15.897h36.716v20.402h-36.716v19.719H460.4v22.654h-72.947V0z"/>
	<path fill="#262626" d="M541.412,0h30.911V75.4h34.933v24.631h-65.844V0z"/>
	<path fill="#262626" d="M467.234,0h30.908V75.4h34.936v24.631h-65.844V0z"/>
	<path fill="#262626" d="M221.724,0h30.911V75.4h34.931v24.631h-65.842V0z"/>
</g>
</svg>
